 <svg viewBox="0 0 500 500" xmlns="http://www.w3.org/2000/svg">
  <path style="stroke: rgb(0, 0, 0); stroke-width: 0px;" d="M 415.843 32.799 C 440.174 33.326 439.973 131.742 408.019 131.049 C 497.91 127.846 480.077 30.51 415.843 32.799 Z"/>
  <g transform="matrix(1, 0, 0, 1, 29.454655, 1.862877)">
    <path style="stroke: rgb(0, 0, 0); stroke-width: 0px; fill-rule: evenodd;" d="M 211.917 186.465 L 212.746 418.275 C 212.133 381.45 61.446 404.68 61.278 422.668 L 55.193 193.271 C 54.422 162.431 211.146 155.625 211.917 186.465 Z M 212.746 418.275 C 212.748 418.393 212.748 418.511 212.747 418.63 Z M 203.871 340.744 L 205.061 334.005 L 204.268 333.212 C 198.982 333.212 194.523 331.99 190.889 329.546 C 187.255 327.101 183.523 322.707 179.691 316.365 L 157.889 281.879 C 167.138 277.65 174.306 272.232 179.394 265.626 C 184.48 259.019 187.024 251.752 187.024 243.824 C 187.024 234.178 183.456 226.581 176.322 221.031 C 169.186 215.481 159.474 212.707 147.186 212.707 C 145.336 212.839 141.933 213.004 136.979 213.202 C 132.023 213.4 127.3 213.5 122.808 213.5 C 118.447 213.5 114.086 213.433 109.726 213.301 C 105.366 213.169 102.393 213.037 100.807 212.905 L 99.42 221.626 L 99.816 222.419 C 100.344 222.419 101.269 222.352 102.591 222.22 C 103.912 222.088 105.233 222.022 106.555 222.022 C 109.462 222.022 111.411 222.748 112.402 224.202 C 113.393 225.656 113.889 228.497 113.889 232.725 L 113.69 315.969 C 113.69 319.933 113.293 322.939 112.501 324.987 C 111.708 327.035 110.255 328.521 108.141 329.447 C 106.027 330.371 102.855 331.098 98.627 331.627 L 96.843 340.546 C 98.032 340.414 100.411 340.281 103.979 340.149 C 107.546 340.017 111.642 339.951 116.267 339.951 C 121.42 339.951 126.375 340.017 131.132 340.149 C 135.888 340.281 139.06 340.414 140.646 340.546 L 142.429 332.221 L 142.033 331.429 C 137.54 331.429 134.369 331.065 132.519 330.339 C 130.669 329.611 129.414 328.158 128.754 325.978 C 128.093 323.798 127.763 320.197 127.763 315.176 L 128.357 285.644 L 144.808 285.644 L 166.015 324.095 C 169.186 329.909 172.655 334.5 176.421 337.87 C 180.186 341.239 183.72 342.924 187.024 342.924 Z M 128.754 274.545 C 128.886 262.257 129.546 246.004 130.736 225.788 C 130.868 223.938 131.165 222.715 131.627 222.121 C 132.089 221.526 132.981 221.229 134.303 221.229 C 158.483 221.229 170.574 229.95 170.574 247.392 C 170.574 254.262 168.988 259.878 165.817 264.239 C 162.645 268.599 159.078 271.836 155.114 273.951 C 151.15 276.065 149.168 276.923 149.168 276.527 Z"/>
  </g>
  <g transform="matrix(1, 0, 0, 1, 28.385393, 0.745151)">
    <path style="stroke: rgb(0, 0, 0); fill-rule: evenodd; stroke-width: 0px;" d="M 369.114 180.693 L 369.969 413.271 C 295.387 371.324 213.884 399.631 213.711 417.678 L 207.433 187.522 C 206.638 156.58 368.318 149.751 369.114 180.693 Z M 369.969 413.271 C 369.971 413.389 369.971 413.508 369.97 413.627 L 369.969 413.271 Z M 236.501 325.569 L 238.21 327.658 C 240.869 330.697 245.427 334.179 251.883 338.103 C 259.226 342.661 267.645 344.939 277.139 344.939 C 289.799 344.939 300.877 340.477 310.372 331.551 C 319.867 322.626 324.614 312.213 324.614 300.312 C 324.614 293.096 322.589 286.956 318.538 281.892 C 314.487 276.828 309.581 272.999 303.82 270.403 C 298.06 267.808 292.3 265.434 286.539 263.282 C 280.779 261.13 275.874 258.63 271.822 255.781 C 267.771 252.933 265.745 249.673 265.745 246.001 C 265.745 242.33 267.17 239.387 270.018 237.171 C 272.867 234.955 276.602 233.847 281.222 233.847 C 285.844 233.847 291.224 235.019 297.364 237.361 C 303.504 239.703 308.347 242.267 311.891 245.052 L 324.804 217.326 C 319.614 214.921 314.233 213.085 308.663 211.819 C 303.093 210.553 297.332 209.92 291.382 209.92 C 278.342 209.92 267.075 214.066 257.58 222.358 C 248.085 230.651 243.337 240.494 243.337 251.888 C 243.337 259.104 245.363 265.244 249.414 270.308 C 253.466 275.372 258.34 279.265 264.036 281.987 C 269.734 284.709 275.462 287.146 281.222 289.298 C 286.983 291.451 291.889 293.951 295.939 296.799 C 299.991 299.648 302.016 303.13 302.016 307.244 C 302.016 311.359 300.339 314.714 296.984 317.308 C 293.63 319.904 289.167 321.201 283.596 321.201 C 272.835 321.201 262.074 315.821 251.313 305.06 L 236.501 325.569 Z"/>
  </g>
  <path style="stroke: rgb(0, 0, 0); stroke-width: 0px;" d="M 194.531 38.173 L 214.062 58.091 L 234.69 47.76 L 221.603 67.829 L 239.3 83.921 L 213.54 81.235 L 195.695 96.225 L 202.469 73.151 L 181.627 69.446 L 200.187 59.751 L 194.531 38.173 Z"/>
  <path style="stroke: rgb(0, 0, 0); paint-order: fill; stroke-width: 0px;" d="M 56.911 82.668 L 51.707 110.411 L 28.098 114.776 L 52.607 130.245 L 44.355 157.077 L 66.577 139.472 L 96.694 147.19 L 78.272 126.45 L 97.44 104.541 L 69.966 108.372 L 56.911 82.668 Z"/>
  <path style="stroke: rgb(0, 0, 0); stroke-width: 5px; stroke-opacity: 0;" d="M 431.797 401.02 L 443.314 380.834 L 448.372 402.644 L 470.627 407.605 L 454.936 418.883 L 459.428 440.628 L 444.437 428.418 L 422.837 432.689 L 430.41 419.158 L 419.569 401.156 L 431.797 401.02 Z"/>
</svg>